PathFileType	4	(X/Y/Z)	C:/Users/opensim2020/Desktop/walking_exp_matlab/subject01_walking13_straight_03.trc																																																																																																																												
DataRate	CameraRate	NumFrames	NumMarkers	Units	OrigDataRate	OrigDataStartFrame	OrigNumFrames																																																																																																																								
100	100	6	42	mm	100	1631	128																																																																																																																								
Frame#	Time	LFHD			RFHD			LBHD			RBHD			C7			T10			CLAV			STRN			RBAK			LSHO			LUPA			LELB			LFRM			LWRA			LWRB			LFIN			RSHO			RUPA			RELB			RFRM			RWRA			RWRB			RFIN			LASI			RASI			LPSI			RPSI			LTHI			LKNE			LTIB			LANK			LHEE			LTOE			RTHI			RKNE			RTIB			RANK			RHEE			RTOE			*39			*40			*41		
		X1	Y1	Z1	X2	Y2	Z2	X3	Y3	Z3	X4	Y4	Z4	X5	Y5	Z5	X6	Y6	Z6	X7	Y7	Z7	X8	Y8	Z8	X9	Y9	Z9	X10	Y10	Z10	X11	Y11	Z11	X12	Y12	Z12	X13	Y13	Z13	X14	Y14	Z14	X15	Y15	Z15	X16	Y16	Z16	X17	Y17	Z17	X18	Y18	Z18	X19	Y19	Z19	X20	Y20	Z20	X21	Y21	Z21	X22	Y22	Z22	X23	Y23	Z23	X24	Y24	Z24	X25	Y25	Z25	X26	Y26	Z26	X27	Y27	Z27	X28	Y28	Z28	X29	Y29	Z29	X30	Y30	Z30	X31	Y31	Z31	X32	Y32	Z32	X33	Y33	Z33	X34	Y34	Z34	X35	Y35	Z35	X36	Y36	Z36	X37	Y37	Z37	X38	Y38	Z38	X39	Y39	Z39	X40	Y40	Z40	X41	Y41	Z41	X42	Y42	Z42
																																																																																																																															
33	0.32	-359.07068	1670.80017	-1147.46472	-345.16776	1681.87866	-1035.69702	-471.37607	1618.13855	-1136.56567	-459.37271	1628.07251	-1017.06927	-492.80817	1432.96326	-1088.46509	-540.42169	1142.25452	-1063.08289	-348.25198	1363.70752	-1075.9071	-311.02283	1207.10938	-1072.19226	-557.53302	1246.23877	-1000.91437	-401.31888	1389.37109	-1239.56262	-428.61142	1210.97192	-1328.21289	-433.18533	1056.63867	-1339.91113	-353.52087	968.74237	-1357.11633	-235.78085	899.40411	-1329.22803	-281.14856	870.85034	-1355.59595	-209.63583	833.75909	-1368.16443	-418.75488	1399.44153	-929.07501	-507.30313	1218.59521	-821.04608	-525.30872	1094.0282	-808.26007	-505.19171	973.39221	-776.49762	-431.8367	854.1106	-798.3017	-473.75882	855.80597	-758.40082	-432.43262	785.02289	-751.36279	-365.10867	935.49194	-1162.77307	-369.5433	937.58862	-946.44348	-553.23486	945.80719	-1108.16309	-550.65704	944.49707	-962.78613	-398.2861	601.79761	-1213.55225	-407.3331	467.19507	-1195.46399	-470.3898	286.05133	-1201.58118	-507.04947	71.57098	-1145.67371	-552.12524	44.36765	-1092.13562	-360.67859	32.53934	-1155.96265	-336.10138	611.71655	-882.85791	-294.92053	460.65915	-902.4964	-426.20877	345.19254	-904.23987	-556.09576	186.15948	-953.54755	-613.38025	179.81342	-1009.95306	-474.95587	69.9649	-942.87885	-359.38095	1713.42432	-1059.55969	1973.02808	1023.81042	-3102.14648	2012.45911	1021.8938	-3140.65259
34	0.33	-346.47806	1670.93738	-1147.59924	-332.56839	1681.65576	-1035.84021	-459.13925	1619.02124	-1137.03699	-447.1543	1628.56091	-1017.47223	-481.39322	1433.28125	-1089.37012	-529.77332	1142.72424	-1064.67346	-337.28903	1363.83899	-1076.84583	-300.35382	1207.25183	-1073.36682	-546.81903	1246.57324	-1002.43341	-390.20529	1390.17029	-1240.48242	-416.81305	1212.00342	-1329.86792	-419.35217	1057.72119	-1342.68591	-336.24658	972.86017	-1359.57153	-215.88208	908.45264	-1331.276	-259.94992	878.0072	-1357.64026	-186.90883	844.08533	-1370.32971	-407.98923	1399.44214	-930.00183	-497.86304	1218.75098	-822.88727	-516.58997	1094.5199	-810.41162	-499.58252	973.80963	-777.91998	-429.14371	852.4566	-798.22266	-471.92654	855.41138	-758.81171	-432.3728	783.53381	-751.05176	-355.18121	935.52716	-1164.29333	-358.80121	938.51489	-948.14905	-542.94025	946.2464	-1108.98181	-539.90759	945.07184	-963.63538	-392.99588	601.63153	-1214.28088	-404.74933	467.11957	-1196.42188	-469.12506	286.61658	-1201.76941	-506.79199	72.13117	-1145.57336	-551.8988	45.37394	-1091.84534	-360.63644	32.47305	-1155.99939	-321.06668	614.11322	-884.26135	-276.57721	463.41031	-905.29492	-402.55273	341.09604	-906.55865	-525.6568	177.2536	-956.52991	-582.83093	167.27051	-1013.07794	-438.1228	66.41322	-945.38983	-346.53625	1713.37244	-1059.59839	1973.06067	1023.68341	-3102.16113	2012.4856	1021.91089	-3140.62085
35	0.34	-333.93481	1670.96973	-1147.73083	-320.79474	1681.13391	-1036.26953	-446.88422	1619.67004	-1137.35828	-435.00058	1628.86584	-1017.79742	-470.25003	1433.60425	-1090.23267	-519.11627	1143.04053	-1066.11353	-326.24213	1363.89136	-1078.11353	-289.64206	1207.2478	-1074.49744	-535.99084	1246.68115	-1003.88739	-379.05496	1390.86487	-1241.25964	-405.07986	1212.90186	-1331.42212	-405.51105	1058.81348	-1345.42188	-319.20215	976.9035	-1361.88501	-196.38666	917.56891	-1333.13159	-239.20067	885.17963	-1359.68335	-164.78894	854.65833	-1372.64343	-397.32718	1399.25916	-930.84247	-488.52905	1218.6134	-824.63513	-507.83752	1095.01343	-812.3429	-493.96603	974.2215	-779.23071	-426.28867	850.99231	-798.06085	-469.99384	855.29871	-759.30414	-432.17285	782.21069	-750.83087	-345.12366	935.38434	-1165.73389	-348.03348	939.22589	-949.64276	-532.66333	946.43811	-1109.83716	-529.18823	945.53516	-964.39465	-387.58377	601.50903	-1215.01501	-401.76688	466.99817	-1197.29565	-467.49042	287.16962	-1201.88196	-506.53479	72.75108	-1145.40869	-551.59277	46.29818	-1091.479	-360.51413	32.33214	-1155.94006	-305.8172	616.24969	-885.76135	-258.94678	465.6156	-908.32837	-378.88904	336.68475	-908.79224	-494.56036	167.39157	-959.44171	-550.32599	153.63739	-1016.21185	-400.21246	62.90703	-947.64111	-333.79877	1713.15063	-1059.61487	1973.15894	1023.73419	-3102.04639	2012.56226	1021.85986	-3140.54443
36	0.35	-321.49777	1670.87769	-1147.85889	-307.65149	1680.86829	-1035.96191	-434.71655	1620.17456	-1137.67529	-422.9415	1629.03589	-1018.08612	-459.14133	1433.74524	-1091.05676	-508.45322	1143.25208	-1067.42773	-315.2829	1363.61621	-1078.42419	-278.93607	1207.08179	-1075.54028	-525.22186	1246.69641	-1005.24042	-367.83194	1391.44104	-1242.00244	-393.28903	1213.68494	-1332.91565	-391.63092	1059.85046	-1348.04907	-302.32425	980.98297	-1364.04883	-177.42569	926.58826	-1334.71558	-218.78929	892.56689	-1361.40027	-143.12326	865.21106	-1374.42053	-386.35083	1398.97815	-931.65424	-478.74005	1218.76379	-826.15082	-498.85745	1095.11536	-814.5274	-488.10831	974.76477	-780.48499	-423.25	849.7215	-797.8432	-466.85797	855.3288	-759.72455	-431.3093	781.12592	-750.60492	-335.09512	934.99738	-1166.77283	-337.30026	939.70044	-951.02179	-522.38788	946.46307	-1110.63721	-518.44537	945.67926	-965.0871	-382.12598	601.27704	-1215.71033	-398.65146	466.89917	-1197.93738	-465.38486	287.62796	-1201.82971	-506.17648	73.49232	-1145.21277	-551.60889	47.66304	-1091.17395	-360.3819	32.27399	-1155.89294	-290.66971	618.26495	-887.02063	-242.09244	467.53046	-911.1181	-355.32635	331.94165	-911.16681	-462.5647	157.47858	-962.10651	-517.63733	140.31456	-1019.11688	-361.67819	59.81427	-949.4054	-321.17831	1712.87061	-1059.63782	1973.22461	1023.65485	-3101.97949	2012.50183	1021.95013	-3140.6333
37	0.36	-309.09747	1670.60986	-1147.91284	-295.33209	1680.37915	-1035.90552	-422.62411	1620.4668	-1137.91638	-410.80676	1628.94543	-1018.35254	-447.90134	1433.88916	-1091.7616	-497.7511	1143.36914	-1068.68616	-304.21585	1363.30115	-1079.07703	-268.202	1206.72705	-1076.52808	-514.3222	1246.59448	-1006.50598	-356.77206	1391.88623	-1242.75537	-381.43277	1214.31152	-1334.24304	-377.76035	1060.77832	-1350.60352	-285.54736	984.85822	-1366.28955	-158.87975	935.435	-1336.13147	-198.79897	899.927	-1362.97522	-122.15285	875.48297	-1375.77246	-375.66086	1398.69238	-932.07025	-469.13876	1218.44629	-827.62433	-490.04703	1095.44299	-816.26373	-482.12704	975.19519	-781.67133	-419.98621	848.53967	-797.67346	-463.74854	855.27081	-759.99774	-430.75427	780.11346	-750.48926	-326.31485	934.25507	-1168.03076	-326.5238	939.96625	-952.25824	-512.19525	946.29645	-1111.31531	-507.79688	945.6723	-965.72754	-376.66397	600.9776	-1216.32715	-395.07291	466.51239	-1198.46216	-462.99954	288.00015	-1201.72021	-505.84021	74.17748	-1144.98572	-551.17358	48.84426	-1090.79272	-360.14026	32.42707	-1155.83264	-275.87262	620.09204	-888.08936	-225.8848	469.30914	-913.72076	-332.25159	327.1738	-913.53638	-429.76932	147.19035	-964.7215	-483.8573	126.60725	-1021.85712	-322.4798	57.01649	-951.10498	-308.67267	1712.49658	-1059.51355	1973.02429	1024.14868	-3102.11206	2012.58105	1021.93066	-3140.68262
38	0.37	-296.75369	1670.29333	-1147.75964	-283.20001	1679.68481	-1035.90161	-410.41251	1620.57104	-1137.97375	-398.71921	1628.88733	-1018.33954	-436.63846	1433.76636	-1092.36707	-487.10565	1143.41577	-1069.75476	-293.11935	1362.86438	-1079.64075	-257.48434	1206.20593	-1077.45178	-503.37082	1246.30774	-1007.66046	-345.53247	1392.14783	-1243.26648	-369.50464	1214.83081	-1335.54871	-363.82727	1061.62793	-1353.05029	-269.13046	988.79962	-1368.16309	-140.76991	944.11127	-1337.34363	-179.25	907.12689	-1364.35962	-101.53034	885.99792	-1377.25647	-364.55316	1398.13452	-932.80157	-459.34195	1218.17139	-828.85547	-481.34195	1095.74609	-817.68219	-475.94843	975.63409	-782.72784	-416.51993	847.45972	-797.48932	-460.33371	855.42389	-760.35004	-429.0928	779.24274	-750.34576	-316.3541	933.58173	-1169.04797	-315.55331	939.97772	-953.35529	-501.95212	945.97272	-1111.91931	-496.96722	945.45978	-966.17017	-370.92276	600.6203	-1216.92126	-391.35931	466.2984	-1198.90234	-460.46799	288.4068	-1201.68396	-505.39932	74.94756	-1144.77454	-550.74695	49.90392	-1090.47705	-360.21405	32.17027	-1155.85791	-261.6449	621.45892	-889.34998	-210.64871	470.60526	-916.07806	-309.23962	322.12585	-915.77716	-396.31613	137.24423	-966.69489	-447.73578	112.29994	-1023.84021	-282.86414	54.79665	-952.72388	-296.31857	1712.01636	-1059.3833	1973.17786	1024.1366	-3102.11328	2012.54785	1022.01044	-3140.62109
